<svg xmlns="http://www.w3.org/2000/svg" viewBox="0 0 1200 800" preserveAspectRatio="xMidYMid slice">
  <defs>
    <linearGradient id="grad" x1="0%" y1="0%" x2="100%" y2="100%">
      <stop offset="0%" stop-color="#f87171" />
      <stop offset="50%" stop-color="#7f1d1d" />
      <stop offset="100%" stop-color="#111827" />
    </linearGradient>
    <linearGradient id="soft" x1="0%" y1="0%" x2="100%" y2="0%">
      <stop offset="0%" stop-color="#ffffff" stop-opacity="0.18" />
      <stop offset="100%" stop-color="#ffffff" stop-opacity="0" />
    </linearGradient>
    <filter id="blur" x="-20%" y="-20%" width="140%" height="140%">
      <feGaussianBlur stdDeviation="32" />
    </filter>
  </defs>
  <rect width="1200" height="800" rx="48" fill="url(#grad)" />
  <circle cx="280" cy="180" r="120" fill="#ffffff" fill-opacity="0.1" filter="url(#blur)" />
  <circle cx="950" cy="260" r="90" fill="#fca5a5" fill-opacity="0.18" filter="url(#blur)" />
  <path d="M160 620 C260 520 420 520 520 620 S760 760 860 660" fill="none" stroke="#fca5a5" stroke-width="24" stroke-linecap="round" stroke-linejoin="round" opacity="0.7" />
  <rect x="180" y="240" width="320" height="180" rx="28" fill="#ffffff" fill-opacity="0.08" />
  <rect x="220" y="280" width="120" height="18" rx="9" fill="#fee2e2" />
  <rect x="220" y="310" width="260" height="16" rx="8" fill="#fecaca" />
  <rect x="220" y="340" width="220" height="16" rx="8" fill="#fecaca" />
  <rect x="220" y="380" width="280" height="22" rx="11" fill="#f87171" />
  <rect x="270" y="430" width="60" height="60" rx="20" fill="#fff" fill-opacity="0.1" />
  <rect x="360" y="430" width="60" height="60" rx="20" fill="#fff" fill-opacity="0.16" />
  <rect x="450" y="430" width="60" height="60" rx="20" fill="#fff" fill-opacity="0.08" />
  <rect x="120" y="560" width="880" height="160" rx="36" fill="#ffffff" fill-opacity="0.08" />
  <rect x="180" y="600" width="260" height="16" rx="8" fill="#fecaca" />
  <rect x="180" y="630" width="420" height="16" rx="8" fill="#fcd5d5" />
  <rect x="180" y="660" width="280" height="16" rx="8" fill="#fca5a5" />
  <rect x="148" y="620" width="72" height="72" rx="24" fill="#ffffff" fill-opacity="0.12" />
  <circle cx="240" cy="655" r="16" fill="#fee2e2" />
  <circle cx="312" cy="655" r="16" fill="#fee2e2" />
  <circle cx="384" cy="655" r="16" fill="#fee2e2" />
  <rect x="700" y="520" width="280" height="140" rx="32" fill="url(#soft)" />
  <text x="200" y="160" font-family="Inter, sans-serif" font-weight="700" font-size="64" fill="#ffffff" opacity="0.94">CloudDrive</text>
</svg>
